<svg width="475" height="240" xmlns="http://www.w3.org/2000/svg"><path d="M198.819 96.703c9.419 0 18.038 3.051 25.858 9.123 1.095.8 2.665 2.251 4.68 4.324 3.998 4.473 6.812 9.034 8.5 13.714 2.014 5.213 3.05 10.634 3.05 16.231 0 7.287-1.776 14.307-5.301 21-1.214 2.192-2.873 4.621-4.946 7.198-2.252 2.606-4.088 4.443-5.48 5.48-1.54 1.273-3.021 2.34-4.413 3.198-6.901 4.177-14.07 6.25-21.533 6.25h-.77c-7.88 0-15.432-2.31-22.66-6.93-1.391-1.037-2.635-2.015-3.731-2.963-2.251-1.895-3.88-3.524-4.858-4.857a37.196 37.196 0 01-3.377-4.502 55.23 55.23 0 01-2.962-5.391c-2.695-6.013-4.057-11.996-4.057-17.95v-1.302c0-6.487 1.6-13.003 4.857-19.52.919-1.806 2.015-3.613 3.288-5.48.978-1.391 2.459-3.139 4.443-5.3 2.814-2.578 4.858-4.266 6.072-5.007 7.109-4.887 14.898-7.316 23.34-7.316zm104.378.09c8.382 0 15.906 2.072 22.57 6.16 1.777 1.037 3.94 2.725 6.487 5.035 2.162 2.133 3.495 3.614 4.087 4.443a66.967 66.967 0 013.732 5.272c3.94 6.96 5.894 14.455 5.894 22.481 0 9.538-2.932 18.364-8.856 26.48-.74 1.096-2.25 2.814-4.502 5.183l-1.57 1.304c-8.086 6.782-17.15 10.16-27.16 10.16-7.287 0-13.862-2.074-19.786-6.25-1.096-.741-2.607-2.015-4.502-3.822l-.86-.947v67.112h-16.675l-.089-.089V98.451l.089-.09h16.676v9.124c2.073-2.222 3.376-3.466 3.91-3.732 1.717-1.333 3.228-2.34 4.501-3.051a27.564 27.564 0 015.362-2.251c1.332-.415 3.672-.889 6.96-1.481 1.037-.06 2.28-.119 3.732-.178zm-24.465 41.585v3.465c0 1.63.414 3.969 1.303 7.02.681 1.925 1.422 3.614 2.251 5.124.859 1.274 2.103 2.843 3.732 4.68 1.777 1.807 3.021 2.902 3.732 3.317a67.398 67.398 0 003.643 2.251c3.644 1.54 6.901 2.34 9.804 2.34h1.126c5.154 0 10.011-1.747 14.572-5.213.8-.592 1.985-1.659 3.466-3.199 2.784-3.258 4.68-6.605 5.657-10.07.8-2.666 1.215-5.361 1.215-8.086 0-6.576-2.163-12.5-6.517-17.683-1.836-1.984-2.991-3.08-3.376-3.317-4.62-3.644-9.745-5.45-15.373-5.45h-.68c-3.081 0-6.428.8-10.072 2.429-1.806.8-3.79 2.191-5.983 4.146-2.103 2.103-3.346 3.584-3.82 4.443-.86 1.333-1.57 2.518-2.074 3.554-.533 1.096-1.125 2.548-1.747 4.325-.593 2.665-.86 4.65-.86 5.924zm118.803-45.14c10.574 0 19.578 3.317 26.983 9.893 1.688 1.629 2.873 2.902 3.554 3.82l1.037 1.66c-.119.177-1.659 1.154-4.68 2.932a328.756 328.756 0 00-9.449 6.012c-1.036-1.274-2.073-2.31-3.14-3.05-3.88-2.962-8.589-4.414-14.128-4.414h-.355c-6.072 0-10.93 1.422-14.573 4.324-2.014 1.748-3.05 3.614-3.05 5.628 0 1.274.562 2.281 1.658 2.962 1.096.918 3.229 1.925 6.427 3.051 4.384 1.422 11.226 2.962 20.467 4.591 3.022.681 5.598 1.51 7.731 2.429 2.014.8 4.058 1.895 6.072 3.288.918.651 2.221 1.806 3.91 3.465 4.206 4.65 6.338 9.834 6.338 15.639v.266c0 5.895-2.192 11.404-6.605 16.558-1.836 1.925-3.17 3.11-3.999 3.554-2.31 1.629-4.206 2.755-5.716 3.377-5.894 2.725-12.173 4.087-18.838 4.087h-.592c-8.679 0-16.617-2.28-23.785-6.842-1.57-1.037-3.228-2.4-5.035-4.087-1.688-1.63-2.843-2.903-3.465-3.821a34.39 34.39 0 01-3.051-4.503l14.513-8.323h.06l.71 1.215c.622.977 1.659 2.133 3.022 3.466 2.606 2.428 5.864 4.146 9.744 5.212 2.548.563 5.065.86 7.612.86 5.095 0 9.656-1.126 13.625-3.377.77-.415 1.689-1.126 2.785-2.192 1.51-1.777 2.25-3.584 2.25-5.361 0-3.199-2.458-5.717-7.375-7.553-1.599-.593-4.59-1.215-8.915-1.925-9.33-1.777-16.261-3.673-20.852-5.628-1.955-.8-3.88-1.866-5.805-3.11-4.384-2.843-7.286-6.457-8.679-10.87a18.822 18.822 0 01-1.036-6.25v-.503c0-5.51 2.043-10.664 6.16-15.462 1.748-1.777 2.992-2.932 3.732-3.465 1.955-1.452 3.821-2.607 5.569-3.466 5.776-2.725 12.174-4.087 19.164-4.087zm66.45 66.05c3.495 0 6.398 1.482 8.768 4.503 1.392 2.014 2.103 4.058 2.103 6.072v.71c0 2.755-1.156 5.303-3.407 7.613-1.658 1.451-3.317 2.34-4.946 2.695-.86.178-1.51.267-1.984.267h-1.215c-1.866 0-3.791-.652-5.805-1.985-1.985-1.451-3.347-3.376-4.088-5.746-.296-1.036-.444-1.984-.444-2.843v-.711c0-2.725 1.096-5.243 3.317-7.553 2.192-2.014 4.769-3.021 7.701-3.021zM452.967 54.112h21.889l.059.089-2.577 100.38-.089.088h-16.676l-.088-.089-2.607-100.38.09-.088zM128.76 116.768c0-15.318-6.208-29.185-16.245-39.222-10.038-10.037-23.905-16.245-39.222-16.245-15.318 0-29.185 6.208-39.222 16.245-10.037 10.037-16.245 23.904-16.245 39.222 0 15.318 6.208 29.185 16.245 39.222 10.037 10.037 23.904 16.245 39.222 16.245 15.317 0 29.184-6.208 39.222-16.245 10.037-10.037 16.245-23.904 16.245-39.222zm-7.385-55.316a4.181 4.181 0 011.307-1.518l11.74-8.358a4.168 4.168 0 015.176.227c.587.502 1.293.814 2.108.931a4.07 4.07 0 003.202-.856l63.72-50.07c1.879-1.476 4.04-2.054 6.404-1.713 2.365.34 4.274 1.505 5.66 3.45l8.023 11.269c1.385 1.946 1.86 4.132 1.409 6.477-.452 2.346-1.706 4.199-3.715 5.49l-68.383 43.97a4.177 4.177 0 00-1.65 5.061 4.222 4.222 0 01-1.484 4.953l-11.533 8.21c-.59.42-1.253.666-1.926.748a73.1 73.1 0 015.153 27.045c0 20.238-8.205 38.561-21.468 51.825-13.264 13.263-31.587 21.468-51.825 21.468-20.238 0-38.562-8.205-51.825-21.468C8.204 155.33 0 137.006 0 116.768 0 96.53 8.204 78.207 21.468 64.943 34.73 51.679 53.055 43.475 73.293 43.475c18.397 0 35.212 6.78 48.082 17.977zM67.741 74.967a5.33 5.33 0 111.379 10.57c-5.028.67-9.76 2.55-13.846 5.399a5.251 5.251 0 01-.324.208 31.502 31.502 0 00-9.517 10.919 5.336 5.336 0 11-9.442-4.972 42.143 42.143 0 0112.813-14.646c.118-.098.242-.193.37-.283a42.17 42.17 0 0118.567-7.195zm369.28 135.725v10.247h3.904c1.772 0 3.19-.517 4.257-1.552 1.067-1.035 1.6-2.329 1.6-3.873 0-3.215-1.913-4.822-5.748-4.822h-4.014zm20.604 28.712h-7.582l-5.378-8.938c-1.082-1.803-2.015-2.995-2.776-3.56-.768-.564-1.591-.847-2.485-.847h-2.384v13.345h-6.547v-33.817h11.487c7.81 0 11.714 3.05 11.714 9.143 0 2.242-.659 4.179-1.968 5.825-1.31 1.647-3.176 2.815-5.59 3.505v.094c1.544.518 3.253 2.258 5.12 5.214l6.39 10.036zm-58.922-16.834c0 3.427.847 6.242 2.54 8.437 1.694 2.195 3.991 3.3 6.9 3.3 3.019 0 5.363-1.05 7.04-3.136 1.679-2.093 2.518-4.931 2.518-8.515 0-3.685-.816-6.601-2.439-8.726-1.623-2.133-3.92-3.191-6.884-3.191-3.003 0-5.37 1.113-7.088 3.34-1.725 2.227-2.587 5.057-2.587 8.491zm-6.892.361c0-5.308 1.529-9.62 4.587-12.93 3.05-3.308 7.111-4.962 12.184-4.962 4.806 0 8.68 1.607 11.612 4.814 2.932 3.207 4.399 7.323 4.399 12.349 0 5.292-1.513 9.589-4.54 12.874-3.019 3.285-7.025 4.924-11.996 4.924-4.846 0-8.758-1.6-11.753-4.798-2.996-3.2-4.493-7.292-4.493-12.271zm-21.546-12.24v10.248h3.905c1.771 0 3.19-.517 4.257-1.552 1.066-1.035 1.6-2.329 1.6-3.873 0-3.215-1.914-4.822-5.748-4.822h-4.014zm20.605 28.713h-7.582l-5.378-8.938c-1.083-1.803-2.016-2.995-2.776-3.56-.768-.564-1.592-.847-2.486-.847h-2.383v13.345h-6.547v-33.817h11.487c7.809 0 11.713 3.05 11.713 9.143 0 2.242-.658 4.179-1.968 5.825-1.309 1.647-3.175 2.815-5.59 3.505v.094c1.545.518 3.254 2.258 5.12 5.214l6.39 10.036zm-51.364-28.712v10.247h3.905c1.772 0 3.19-.517 4.257-1.552 1.066-1.035 1.6-2.329 1.6-3.873 0-3.215-1.914-4.822-5.747-4.822h-4.015zm20.605 28.712h-7.582l-5.378-8.938c-1.082-1.803-2.016-2.995-2.776-3.56-.768-.564-1.592-.847-2.486-.847h-2.383v13.345h-6.547v-33.817h11.487c7.809 0 11.714 3.05 11.714 9.143 0 2.242-.659 4.179-1.969 5.825-1.309 1.647-3.175 2.815-5.59 3.505v.094c1.545.518 3.254 2.258 5.12 5.214l6.39 10.036zm-32.915 0h-19.57v-33.817h18.81v5.45h-12.263v8.609h11.392v5.425h-11.392v8.915h13.023v5.418zm-110.388-12.153h9.275v-13.094c-.933 1.67-2.258 3.732-3.967 6.194a92.812 92.812 0 01-5.308 6.9zm15.203-21.664v21.664h4.045v4.689h-4.045v7.464h-5.928v-7.464h-14.725V227a119.527 119.527 0 008.57-11.04c2.635-3.833 4.65-7.291 6.045-10.373h6.038zm-40.819 17.32c0 8.06 1.804 12.083 5.418 12.083 3.536 0 5.308-4.132 5.308-12.404 0-8.374-1.733-12.56-5.19-12.56-3.693 0-5.536 4.296-5.536 12.882zm-6.5.165c0-5.88 1.051-10.357 3.152-13.423 2.11-3.074 5.167-4.61 9.182-4.61 7.629 0 11.44 5.755 11.44 17.25 0 5.668-1.044 10.035-3.114 13.108-2.077 3.066-5.08 4.603-9.016 4.603-7.763 0-11.644-5.645-11.644-16.928zm-22.424 4.179h9.276v-13.094c-.933 1.67-2.259 3.732-3.968 6.194a92.812 92.812 0 01-5.308 6.9zm15.203-21.664v21.664h4.046v4.689h-4.046v7.464h-5.927v-7.464h-14.725V227a119.527 119.527 0 008.57-11.04c2.634-3.833 4.65-7.291 6.045-10.373h6.037zm-3.917-65.492c0 6.31 2.043 12.026 6.16 17.18 1.807 2.044 3.2 3.376 4.177 3.998 4.561 3.466 9.537 5.213 14.928 5.213 6.575 0 12.44-2.488 17.505-7.464 2.044-2.132 3.465-3.998 4.265-5.568 2.37-4.265 3.554-8.708 3.554-13.27v-.266c0-6.635-2.28-12.618-6.842-17.95-1.984-2.073-3.317-3.258-3.998-3.554a16.904 16.904 0 00-2.784-1.925c-3.762-2.014-7.672-3.021-11.7-3.021-6.131 0-11.759 2.28-16.854 6.842-1.776 1.807-2.902 3.14-3.376 3.999-3.347 4.68-5.035 9.951-5.035 15.786z" fill="#213256" fill-rule="evenodd"/></svg>