<svg height="228.036" width="425.2" xmlns="http://www.w3.org/2000/svg"><g fill="#fff"><path d="M179.291 27.118c-19.666-1.236-54.089 20.898-54.089 20.898 2.453-7.382 0-12.295 0-12.295-8.615-1.23-13.528 8.615-13.528 8.615-1.224 13.513-12.292 11.062-12.292 11.062-51.625-8.612-84.826 31.955-84.826 31.955-39.339 70.083 13.525 130.314 13.525 130.314 11.065-1.232 14.752-12.287 14.752-12.287 2.459-7.388 24.588-14.758 24.588-14.758 15.982-1.22 40.974-17.205 40.974-17.205l19.261 24.576 1.233-9.83 15.973 4.919 1.236-9.833 7.379-6.149c-9.83 1.232-22.125-12.298-22.125-12.298-4.919-12.28 4.914-17.203 4.914-17.203l22.131 12.286 2.456-6.143c-12.289-3.691-13.528-12.287-13.528-12.287 40.578 0 40.578-51.636 40.578-51.636 0-13.531 7.37-19.674 7.37-19.674 11.069-3.69 20.904-23.357 20.904-23.357 6.146-24.589-36.886-19.67-36.886-19.67zM124.527 138.34c-6.385 13.88-27.877 21.055-32.917 22.571l-4.094 4.091c.239 3.662-.699 7.047-2.739 9.886-4.938 6.855-14.506 8.401-15.575 8.555l-.864.123-.829-.256c-13.064-3.949-19.175-1.627-20.688-.847-6.849 9.787-13.607 14.746-20.103 14.746-.076 0-.145-.006-.217-.006-5.348-.082-9.01-3.63-10.339-5.704l6.59-4.258c.053.087 1.476 2.122 3.96 2.127h.006c2.188 0 6.945-1.564 14.095-12.021l.756-.817c.833-.687 8.561-6.408 27.292-.992 2.458-.527 7.307-2.106 9.567-5.25 1.179-1.658 1.55-3.624 1.109-6.008l-.371-2.02 8.342-8.338 1.012-.277c6.472-1.769 24.269-8.548 28.88-18.592 1.616-3.521 1.477-7.183-.419-11.18l7.075-3.37c2.93 6.144 3.082 12.143.471 17.837zm17.057-.904c-.316-.479-.576-1.13-.861-1.688.976 3.494 1.408 6.403.85 8.129l-7.458-2.408c.22-2.725-5.585-16.639-11.183-27.773-20.922-29.454-23.641-49.598-23.746-50.448l7.78-.979c.024.189 2.713 19.234 22.665 47.4 2.854 5.618 5.763 11.77 8.051 17.411-5.899-24.326-3.249-71.877-2.867-78.081l7.825.476c-1.169 19.109-2.469 71.388 5.51 83.684zm90.831 2.92l-5.519-8.886 33.188-20.602V73.836h10.449v42.847z"/><path d="M295.24 131.923l-32.645-13.297 3.951-9.684 24.692 10.056 5.346-8.094 8.74 5.761z"/><path d="M313.496 158.639l-25.2-29.921 8.007-6.743 25.199 29.92z"/><path d="M385.783 30.798c-7.922-8.6-20.889-15.997-31.396-20.929-29.178-13.706-75.189-15.737-99.324 9.613-11.353 11.922-16.545 29.802-8.526 44.835 3.042 5.688 8.902 15.108 15.077 18.119 27.525 13.419 46.842 34.091 52.57 64.843 3.695 19.853-5.51 43.582 7.885 60.992 4.473 5.814 14.008 16.786 21.924 18.209 49.173 8.805 73.751-57.984 73.751-57.984 25.817-74.988-31.943-137.679-31.961-137.698zm6.242 168.6l-5.298-5.775c18.686-17.122 13.096-25.724 13.029-25.806-10.991-13.393-6.875-25.573-6.697-26.08l.679-1.202c4.1-4.928 5.151-15.28 5.234-19.513-3.231-10.875-16.265-13.445-16.395-13.476l-1.056-.347c-2.901-1.471-4.952-3.888-5.903-6.999-2.215-7.304 2.176-16.718 3.741-19.717.312-12.919-14.671-16.018-15.324-16.147-18.172-4.38-15.982-29.127-15.491-33.203-.612-5.061-2.485-8.645-5.731-10.95-6.835-4.872-17.59-2.439-17.694-2.42l-1.803-7.624c.579-.154 14.234-3.279 24.014 3.626 5.219 3.702 8.268 9.414 9.063 16.985l.063.48-.072.494c-.035.211-2.977 21.983 9.335 24.952 7.813 1.532 22.592 8.82 21.429 25.161l-.501 1.646c-1.979 3.542-4.692 10.583-3.521 14.441.285.919.769 1.571 1.541 2.057 3.412.777 18.17 4.961 22.024 19.526l.127 1.003c0 1.649-.189 15.988-6.499 24.34-.457 2.002-1.507 9.46 5.617 18.129.474.6 10.648 13.92-13.911 36.419z"/></g></svg>