<svg enable-background="new 0 0 172.3 58" viewBox="0 0 172.3 58" xmlns="http://www.w3.org/2000/svg"><path d="m18.4 39.1c-1.9 2.6-3.5 5.7-5.2 8.5l-11.7-7.7c22.4-26 53.1-38.9 84.3-38.9 31.7 0 64.6 14.8 85 38.7l-11.6 7.9c-2.1-3.2-3.3-6.6-5.5-9.5 0 1.1.6 16.4-15.4 18.9l-104.3-.1c-15.2-1.7-15.3-17.6-15.6-17.8m133.5-.6s0-3.3-2.5-5.5c-14.6-17.4-36-30.1-63.2-30.1-25.5 0-46.8 10.6-63.2 30.8-2.5 2.4-2.1 5.8-2.1 5.8.4 4.7 3 13.2 14.6 14.3h101.8c12.3-1.1 14.3-10.4 14.6-15.3z" fill="#fff"/><path d="m18.4 39.1c-1.9 2.6-3.5 5.7-5.2 8.5l-11.7-7.7c22.4-26 53.1-38.9 84.3-38.9 31.7 0 64.6 14.8 85 38.7l-11.6 7.9c-2.1-3.2-3.3-6.6-5.5-9.5 0 1.1.6 16.4-15.4 18.9l-104.3-.1c-15.2-1.7-15.3-17.6-15.6-17.8m133.5-.6s0-3.3-2.5-5.5c-14.6-17.4-36-30.1-63.2-30.1-25.5 0-46.8 10.6-63.2 30.8-2.5 2.4-2.1 5.8-2.1 5.8.4 4.7 3 13.2 14.6 14.3h101.8c12.3-1.1 14.3-10.4 14.6-15.3z" fill="none" stroke="#fff" stroke-width="2.0354"/><path d="m18.4 39.1c-1.9 2.6-3.5 5.7-5.2 8.5l-11.7-7.7c22.4-26 53.1-38.9 84.3-38.9 31.7 0 64.6 14.8 85 38.7l-11.6 7.9c-2.1-3.2-3.3-6.6-5.5-9.5 0 1.1.6 16.4-15.4 18.9l-104.3-.1c-15.2-1.7-15.3-17.6-15.6-17.8m133.5-.6s0-3.3-2.5-5.5c-14.6-17.4-36-30.1-63.2-30.1-25.5 0-46.8 10.6-63.2 30.8-2.5 2.4-2.1 5.8-2.1 5.8.4 4.7 3 13.2 14.6 14.3h101.8c12.3-1.1 14.3-10.4 14.6-15.3z" fill="#e4412b"/><path d="m152.1 38.4s0-3.3-2.5-5.5c-14.6-17.4-36-30.1-63.2-30.1-25.6 0-47 10.5-63.4 30.7-2.8 2.7-2.3 5.9-2.3 5.9.4 4.7 2.8 13.5 14.8 14.6h101.7c12.4-1.2 14.6-10.8 14.9-15.6" fill="#fff"/><path d="m68.4 39.4c1-1.4 1.6-2.5 3.3-5.8l4.1-9.2h4.8l-4.3 9.4-.8 1.7 7.2-4.4h4.9l-8.2 5.5.5 1.7s.9 3.1 1.1 3.2c0 0 .3 1.5 2.8.4 0 0 2.4-.8 2.9-1.2 0 0-2.2-5.6 7.2-9.7 0 0 5.9-2 7.6 1 0 0 1 1.8-.8 3.7 0 0-.6 1-3.5 2.5-1.8.9-2.8 1.4-4.2 2.2 0 0-.8.4-1 .5.1.2.7.9 1.3 1.2 0 0 2.3 1.6 7-.7 0 0 3.1-1.8 4.1-3.5 1.2-3 4.9-6.8 8.8-6.9 1.8-.1 2.8-.3 4.5 1.7h.1c.2-.7.7-1.2 1-1.9l3.1-6.2h4.3l-7.6 15.7s-1.3 2.3 1.7 1.4c0 0 1.7-.9 2.2-2.1.3-.5.5-.8.6-.9 1.6-3.8 4.7-7.1 9-7.3.7 0 3.3-.3 4.2 1.7l.7-1 .2-.6h4.1l-4.5 9.4s-.2 1.1.4 1.4c0 0 1 .9 4.5-2.1 0 0 .5.5 1 1.5 0 0-1.2 1.1-1.9 1.5-2.6 2.1-5 2-5 2-3.1.2-3.7-2.4-3.7-2.4v.1c-1.3 1.5-3.5 2.2-5.3 2.2-2.3 0-3.8-1.9-4.1-3.3-2.1 2.4-5.6 3-5.6 3-3.5.2-3.9-1.7-3.9-1.7l-.2-.1c-1.6 1.3-2.3 1.4-3.9 1.6-3 .5-5.1-1.8-5.3-3.5-2 1.8-5.9 3.1-5.9 3.1-3.1 1.2-6.4.6-6.4.6-2.1-.3-4.1-2.3-4.1-2.3-3 1.2-5.5 2-5.5 2-2.8 1-3.6.4-3.6.4-.8 0-1.2-1.1-1.2-1.1l-1.4-5.2-2.7 1.5-2.1 4.5h-4.7l1.1-2.2c-3.3 2.2-5.6 2.3-5.6 2.3-3.5.4-3.2-2.2-3.2-2.2l-.5.3c-2.3 1.6-3.3 2-5.2 2-5.6 0-4.2-5.1-3.5-7 1.2-2.9 4.3-6.1 8.7-6.4.8-.1 2.8-.1 4.3 1.2l.3-.4.4-.9h4.4l-4.7 9.9s-.3.8.5.7c.7.1 3.2-1.5 5.2-2.5m-27.3 5.2 8-16.7h7.7l1.6-3.5h-21.3l-1.6 3.5h8l-8 16.7zm69.9-2.9c1.1-.1 3.5-1.9 4.3-4.1.9-2.2.5-4.1-1.1-4.1s-4.4 2.5-5.2 4.8c-1.2 4 1.4 3.4 2 3.4zm-54.4-.3c1.9-.6 3.2-3.7 3.8-4.8 1.1-2.1.1-3.4-2.1-3-1.7.3-3.7 2.6-4.2 4.2-1.8 5.6 3 3.4 2.5 3.6zm37.1-3.7c4.2-2.3 3.8-3.9 3.8-3.9 0-1.8-1.6-1.1-1.6-1.1-3.1 1.1-3.8 3.7-3.8 3.7-.2.6-.5 2.3-.5 2.3.7-.2 2.1-1 2.1-1zm37 3.8c1.6-.4 3.3-3.1 3.6-4.3.9-2.6.3-3.9-2-3.5-1.7.3-3.6 2.7-4.2 4.2-1.8 5.6 3 3.4 2.6 3.6z" fill="#e4412b"/></svg>